<?xml version="1.0" encoding="iso-8859-1"?>
<!-- Uploaded to: SVG Repo, www.svgrepo.com, Generator: SVG Repo Mixer Tools -->
<!DOCTYPE svg PUBLIC "-//W3C//DTD SVG 1.1//EN" "http://www.w3.org/Graphics/SVG/1.1/DTD/svg11.dtd">
<svg fill="#000000" version="1.1" id="Capa_1" xmlns="http://www.w3.org/2000/svg" xmlns:xlink="http://www.w3.org/1999/xlink" 
	 width="800px" height="800px" viewBox="0 0 187.059 187.06"
	 xml:space="preserve">
<g>
	<path d="M93.511,175.667l-3.688-2.333c-3.19-1.991-78.306-49.584-87.236-89.675C0.928,78.721,0,72.903,0,67.054
		C0,46.683,11.079,27.953,28.887,18.14c20.74-11.398,47.632-7.919,64.625,7.67c17.104-15.589,43.909-19.145,64.636-7.67
		c17.829,9.801,28.912,28.543,28.912,48.915c0,5.849-0.926,11.667-2.777,17.253c-1.084,5.015-3.684,11.055-7.557,17.352
		l-11.807-7.234c3.081-5.011,5.103-9.642,6.022-13.771c1.559-4.871,2.247-9.204,2.247-13.6c0-15.29-8.318-29.398-21.714-36.793
		c-17.318-9.539-40.067-5.106-52.635,10.001l-5.334,6.421l-5.313-6.421C75.609,25.066,52.994,20.707,35.573,30.261
		c-13.381,7.407-21.699,21.504-21.699,36.793c0,4.396,0.691,8.723,2.064,12.921c6.19,27.669,54.982,64.472,77.561,79.256
		c4.987-3.281,14.547-9.81,25.252-18.164l8.525,10.955c-16.234,12.604-29.509,20.977-30.075,21.354L93.511,175.667z M26.893,80.006
		c1.809-0.572,2.807-2.533,2.213-4.36c-0.929-2.798-1.385-5.672-1.385-8.592c0-10.251,5.569-19.683,14.529-24.616
		c4.229-2.377,8.811-3.556,13.618-3.556c1.909,0,3.468-1.52,3.468-3.446c0-1.939-1.559-3.462-3.468-3.462
		c-5.985,0-11.703,1.446-16.967,4.366c-11.165,6.153-18.112,17.926-18.112,30.713c0,3.654,0.594,7.271,1.727,10.762
		c0.493,1.446,1.839,2.363,3.3,2.363C26.162,80.173,26.537,80.149,26.893,80.006z M185.744,123.878
		c0-20.643-16.782-37.375-37.382-37.375s-37.381,16.751-37.381,37.375c0,20.605,16.781,37.339,37.381,37.339
		S185.744,144.483,185.744,123.878z M178.802,123.878c0,16.77-13.652,30.446-30.44,30.446c-16.787,0-30.439-13.658-30.439-30.446
		c0-16.806,13.652-30.482,30.439-30.482C165.15,93.396,178.802,107.072,178.802,123.878z M152.046,140.015v-31.115
		c0-1.931-1.56-3.453-3.465-3.453c-1.906,0-3.465,1.522-3.465,3.453v31.115c0,1.93,1.559,3.452,3.465,3.452
		C150.487,143.467,152.046,141.944,152.046,140.015z M167.61,124.456c0-1.941-1.559-3.458-3.465-3.458h-31.121
		c-1.912,0-3.471,1.517-3.471,3.458c0,1.938,1.559,3.459,3.471,3.459h31.121C166.051,127.915,167.61,126.394,167.61,124.456z"/>
</g>
</svg>