<?xml version="1.0" encoding="UTF-8" standalone="no"?>
<!-- Uploaded to: SVG Repo, www.svgrepo.com, Generator: SVG Repo Mixer Tools -->

<svg
   xmlns:dc="http://purl.org/dc/elements/1.1/"
   xmlns:cc="http://creativecommons.org/ns#"
   xmlns:rdf="http://www.w3.org/1999/02/22-rdf-syntax-ns#"
   xmlns:svg="http://www.w3.org/2000/svg"
   xmlns="http://www.w3.org/2000/svg"
   xmlns:sodipodi="http://sodipodi.sourceforge.net/DTD/sodipodi-0.dtd"
   xmlns:inkscape="http://www.inkscape.org/namespaces/inkscape"
   fill="#000000"
   width="800px"
   height="800px"
   viewBox="0 0 128 128"
   id="Layer_1"
   version="1.1"
   xml:space="preserve"
   sodipodi:docname="community-group-leader-svgrepo-com.svg"
   inkscape:version="0.92.4 (5da689c313, 2019-01-14)"><metadata
   id="metadata21"><rdf:RDF><cc:Work
       rdf:about=""><dc:format>image/svg+xml</dc:format><dc:type
         rdf:resource="http://purl.org/dc/dcmitype/StillImage" /></cc:Work></rdf:RDF></metadata><defs
   id="defs19" /><sodipodi:namedview
   pagecolor="#ffffff"
   bordercolor="#666666"
   borderopacity="1"
   objecttolerance="10"
   gridtolerance="10"
   guidetolerance="10"
   inkscape:pageopacity="0"
   inkscape:pageshadow="2"
   inkscape:window-width="3000"
   inkscape:window-height="1875"
   id="namedview17"
   showgrid="false"
   inkscape:zoom="0.295"
   inkscape:cx="-430.50847"
   inkscape:cy="400"
   inkscape:window-x="-13"
   inkscape:window-y="-13"
   inkscape:window-maximized="1"
   inkscape:current-layer="g14" />

<g
   id="g14">

<path
   d="M64,42c-13.2,0-24,10.8-24,24s10.8,24,24,24s24-10.8,24-24S77.2,42,64,42z M64,82c-8.8,0-16-7.2-16-16s7.2-16,16-16   s16,7.2,16,16S72.8,82,64,82z"
   id="path2"
   style="fill:#ffffff" />

<path
   d="M64,100.8c-14.9,0-29.2,6.2-39.4,17.1l-2.7,2.9l5.8,5.5l2.7-2.9c8.8-9.4,20.7-14.6,33.6-14.6s24.8,5.2,33.6,14.6l2.7,2.9   l5.8-5.5l-2.7-2.9C93.2,107.1,78.9,100.8,64,100.8z"
   id="path4"
   style="fill:#ffffff" />

<path
   d="M97,47.9v8c9.4,0,18.1,3.8,24.6,10.7l5.8-5.5C119.6,52.7,108.5,47.9,97,47.9z"
   id="path6"
   style="fill:#ffffff" />

<path
   d="M116.1,20c0-10.5-8.6-19.1-19.1-19.1S77.9,9.5,77.9,20S86.5,39.1,97,39.1S116.1,30.5,116.1,20z M85.9,20   c0-6.1,5-11.1,11.1-11.1s11.1,5,11.1,11.1s-5,11.1-11.1,11.1S85.9,26.1,85.9,20z"
   id="path8"
   style="fill:#ffffff" />

<path
   d="M31,47.9c-11.5,0-22.6,4.8-30.4,13.2l5.8,5.5c6.4-6.9,15.2-10.7,24.6-10.7V47.9z"
   id="path10"
   style="fill:#ffffff" />

<path
   d="M50.1,20C50.1,9.5,41.5,0.9,31,0.9S11.9,9.5,11.9,20S20.5,39.1,31,39.1S50.1,30.5,50.1,20z M31,31.1   c-6.1,0-11.1-5-11.1-11.1S24.9,8.9,31,8.9s11.1,5,11.1,11.1S37.1,31.1,31,31.1z"
   id="path12"
   style="fill:#ffffff" />

</g>

</svg>