<?xml version="1.0" encoding="UTF-8" standalone="no"?>
<!-- Uploaded to: SVG Repo, www.svgrepo.com, Generator: SVG Repo Mixer Tools -->

<svg
   xmlns:dc="http://purl.org/dc/elements/1.1/"
   xmlns:cc="http://creativecommons.org/ns#"
   xmlns:rdf="http://www.w3.org/1999/02/22-rdf-syntax-ns#"
   xmlns:svg="http://www.w3.org/2000/svg"
   xmlns="http://www.w3.org/2000/svg"
   xmlns:sodipodi="http://sodipodi.sourceforge.net/DTD/sodipodi-0.dtd"
   xmlns:inkscape="http://www.inkscape.org/namespaces/inkscape"
   width="800px"
   height="800px"
   viewBox="0 0 24 24"
   fill="none"
   version="1.1"
   id="svg8"
   sodipodi:docname="help-svgrepo-com.svg"
   inkscape:version="0.92.4 (5da689c313, 2019-01-14)">
  <metadata
     id="metadata14">
    <rdf:RDF>
      <cc:Work
         rdf:about="">
        <dc:format>image/svg+xml</dc:format>
        <dc:type
           rdf:resource="http://purl.org/dc/dcmitype/StillImage" />
      </cc:Work>
    </rdf:RDF>
  </metadata>
  <defs
     id="defs12" />
  <sodipodi:namedview
     pagecolor="#ffffff"
     bordercolor="#666666"
     borderopacity="1"
     objecttolerance="10"
     gridtolerance="10"
     guidetolerance="10"
     inkscape:pageopacity="0"
     inkscape:pageshadow="2"
     inkscape:window-width="3000"
     inkscape:window-height="1875"
     id="namedview10"
     showgrid="false"
     inkscape:zoom="0.295"
     inkscape:cx="386.44068"
     inkscape:cy="400"
     inkscape:window-x="-13"
     inkscape:window-y="-13"
     inkscape:window-maximized="1"
     inkscape:current-layer="svg8" />
  <path
     d="m 23.610169,12.050847 c 0,6.440168 -5.220848,11.661017 -11.661016,11.661017 -6.4401999,0 -11.66101741,-5.220849 -11.66101741,-11.661017 0,-6.4401989 5.22081751,-11.66101649 11.66101741,-11.66101649 6.440168,0 11.661016,5.22081759 11.661016,11.66101649 z m -21.1946081,0 c 0,5.265267 4.268335,9.533623 9.5335921,9.533623 5.265267,0 9.533623,-4.268356 9.533623,-9.533623 0,-5.2652562 -4.268356,-9.5335912 -9.533623,-9.5335912 -5.2652571,0 -9.5335921,4.268335 -9.5335921,9.5335912 z"
     id="path2"
     inkscape:connector-curvature="0"
     style="fill:#ffffff;stroke-width:1.06009245;fill-opacity:1" />
  <path
     d="m 13.539291,18.411402 c 0,0.878181 -0.711958,1.590139 -1.590138,1.590139 -0.878181,0 -1.590139,-0.711958 -1.590139,-1.590139 0,-0.878181 0.711958,-1.590138 1.590139,-1.590138 0.87818,0 1.590138,0.711957 1.590138,1.590138 z"
     id="path4"
     inkscape:connector-curvature="0"
     style="fill:#ffffff;stroke-width:1.06009245;fill-opacity:1" />
  <path
     d="m 10.88906,12.050847 v 2.120185 c 0,0 0,1.060093 1.060093,1.060093 1.060092,0 1.060092,-1.060093 1.060092,-1.060093 v -2.120185 c 0,0 0.507996,-0.145338 0.702735,-0.224421 0,0 0.354071,-0.126363 0.601921,-0.31665 0.247955,-0.19018 0.472165,-0.416192 0.672841,-0.677717 0.212442,-0.261631 0.377711,-0.564817 0.495698,-0.9096546 0.117989,-0.3448268 0.177036,-0.623769 0.177036,-1.0518343 0,-0.7134316 -0.159331,-1.445171 -0.477996,-1.9802527 C 14.874583,6.3433521 14.437825,5.9212445 13.871312,5.623984 13.304799,5.3148292 12.643831,5.1602465 11.88841,5.1602465 c -0.47206,0 -0.891114,0.05945 -1.256953,0.1783606 C 10.265514,5.4456235 9.941019,5.5942484 9.6576992,5.7845032 9.3862307,5.9628637 9.1560739,6.1650021 8.9672291,6.3909184 8.7901937,6.6049511 8.6485547,6.8130367 8.5423229,7.0151751 8.4361015,7.2173135 8.3652874,7.3956635 8.3298803,7.5502462 8.2590555,7.7761625 8.229553,7.9604702 8.2413522,8.1031586 8.2649608,8.245847 8.3357742,8.364747 8.4538053,8.4598691 8.571836,8.5549915 8.7547761,8.6560605 9.0026364,8.7630767 9.262306,8.8463155 9.4629497,8.8760402 9.6045881,8.852262 9.7580265,8.8284739 9.8819727,8.7571292 9.9764268,8.6382293 c 0,0 0.5032262,-0.7157107 0.6448542,-0.8583992 0.153501,-0.1545721 0.342304,-0.2734721 0.566619,-0.3567105 0.22421,-0.095122 0.477996,-0.1426884 0.761253,-0.1426884 0.613793,0 1.068149,0.1486355 1.363279,0.445896 0.30679,0.2853769 0.399548,0.525456 0.399548,1.0724214 0,0.3686047 -0.06488,0.6658758 -0.194739,0.8917922 -0.129861,0.2259163 -0.30096,0.4102662 -0.513403,0.5529552 0,0 -0.288556,0.110249 -0.524639,0.217213 -0.22421,0.09509 -0.63595,0.252407 -0.848392,0.37135 -0.200675,0.106964 -0.313152,0.219439 -0.442907,0.38598 -0.129861,0.166434 -0.29884,0.547432 -0.29884,0.832808 z"
     id="path6"
     inkscape:connector-curvature="0"
     style="fill:#ffffff;stroke-width:1.06009245;fill-opacity:1" />
</svg>
