<?xml version="1.0" encoding="UTF-8" standalone="no"?>
<!-- Uploaded to: SVG Repo, www.svgrepo.com, Transformed by: SVG Repo Mixer Tools -->

<svg
   xmlns:dc="http://purl.org/dc/elements/1.1/"
   xmlns:cc="http://creativecommons.org/ns#"
   xmlns:rdf="http://www.w3.org/1999/02/22-rdf-syntax-ns#"
   xmlns:svg="http://www.w3.org/2000/svg"
   xmlns="http://www.w3.org/2000/svg"
   xmlns:sodipodi="http://sodipodi.sourceforge.net/DTD/sodipodi-0.dtd"
   xmlns:inkscape="http://www.inkscape.org/namespaces/inkscape"
   width="800px"
   height="800px"
   viewBox="0 0 24 24"
   fill="none"
   version="1.1"
   id="svg9"
   sodipodi:docname="history-svgrepo-com.svg"
   inkscape:version="0.92.4 (5da689c313, 2019-01-14)">
  <metadata
     id="metadata15">
    <rdf:RDF>
      <cc:Work
         rdf:about="">
        <dc:format>image/svg+xml</dc:format>
        <dc:type
           rdf:resource="http://purl.org/dc/dcmitype/StillImage" />
      </cc:Work>
    </rdf:RDF>
  </metadata>
  <defs
     id="defs13" />
  <sodipodi:namedview
     pagecolor="#ffffff"
     bordercolor="#666666"
     borderopacity="1"
     objecttolerance="10"
     gridtolerance="10"
     guidetolerance="10"
     inkscape:pageopacity="0"
     inkscape:pageshadow="2"
     inkscape:window-width="3000"
     inkscape:window-height="1875"
     id="namedview11"
     showgrid="false"
     inkscape:zoom="0.295"
     inkscape:cx="400"
     inkscape:cy="400"
     inkscape:window-x="-13"
     inkscape:window-y="-13"
     inkscape:window-maximized="1"
     inkscape:current-layer="SVGRepo_iconCarrier" />
  <g
     id="SVGRepo_bgCarrier"
     stroke-width="0" />
  <g
     id="SVGRepo_tracerCarrier"
     stroke-linecap="round"
     stroke-linejoin="round" />
  <g
     id="SVGRepo_iconCarrier"
     transform="matrix(1.1773144,0,0,1.1773144,-2.2294713,-2.026075)">
    <path
       d="m 12,8 v 4 l 2.5,2.5"
       id="path4"
       inkscape:connector-curvature="0"
       style="stroke:#ffffff;stroke-width:1.5;stroke-linecap:round;stroke-linejoin:round;stroke-opacity:1" />
    <path
       d="M 5.60414,5.60414 5.07381,5.07381 v 0 z M 4.33776,6.87052 3.58777,6.87429 C 3.58984,7.28556 3.92272,7.61844 4.33399,7.62051 Z M 6.87954,7.6333 C 7.29375,7.63539 7.63122,7.30129 7.6333,6.88708 7.63538,6.47287 7.30129,6.1354 6.88708,6.13332 Z M 5.07496,4.3212 C 5.07288,3.90699 4.73541,3.5729 4.3212,3.57498 3.90699,3.57706 3.5729,3.91453 3.57498,4.32874 Z M 3.82661,10.7849 C 3.88286,10.3745 3.59578,9.99627 3.1854,9.94002 2.77503,9.88377 2.39675,10.1708 2.3405,10.5812 Z M 18.8622,5.13777 C 15.042,1.31758 8.86873,1.27889 5.07381,5.07381 L 6.13447,6.13447 C 9.33358,2.93536 14.5571,2.95395 17.8016,6.19843 Z M 5.13777,18.8622 c 3.82019,3.8202 9.99353,3.8589 13.78843,0.064 L 17.8655,17.8655 C 14.6664,21.0646 9.44291,21.0461 6.19843,17.8016 Z m 13.78843,0.064 c 3.7949,-3.7949 3.7562,-9.96824 -0.064,-13.78843 l -1.0606,1.06066 c 3.2445,3.24448 3.263,8.46797 0.0639,11.66707 z M 5.07381,5.07381 3.80743,6.34019 4.86809,7.40085 6.13447,6.13447 Z M 4.33399,7.62051 6.87954,7.6333 6.88708,6.13332 4.34153,6.12053 Z M 5.08775,6.86675 5.07496,4.3212 3.57498,4.32874 3.58777,6.87429 Z M 2.3405,10.5812 c -0.40143,2.9287 0.53342,6.0172 2.79727,8.281 L 6.19843,17.8016 C 4.27785,15.881 3.48663,13.2652 3.82661,10.7849 Z"
       id="path6"
       inkscape:connector-curvature="0"
       style="fill:#ffffff;fill-opacity:1" />
  </g>
</svg>
