<?xml version="1.0" encoding="UTF-8" standalone="no"?>
<!-- Uploaded to: SVG Repo, www.svgrepo.com, Transformed by: SVG Repo Mixer Tools -->

<svg
   xmlns:dc="http://purl.org/dc/elements/1.1/"
   xmlns:cc="http://creativecommons.org/ns#"
   xmlns:rdf="http://www.w3.org/1999/02/22-rdf-syntax-ns#"
   xmlns:svg="http://www.w3.org/2000/svg"
   xmlns="http://www.w3.org/2000/svg"
   xmlns:sodipodi="http://sodipodi.sourceforge.net/DTD/sodipodi-0.dtd"
   xmlns:inkscape="http://www.inkscape.org/namespaces/inkscape"
   width="800px"
   height="800px"
   viewBox="0 0 24 24"
   fill="none"
   version="1.1"
   id="svg7"
   sodipodi:docname="message-square-lines-svgrepo-com.svg"
   inkscape:version="0.92.4 (5da689c313, 2019-01-14)">
  <metadata
     id="metadata13">
    <rdf:RDF>
      <cc:Work
         rdf:about="">
        <dc:format>image/svg+xml</dc:format>
        <dc:type
           rdf:resource="http://purl.org/dc/dcmitype/StillImage" />
      </cc:Work>
    </rdf:RDF>
  </metadata>
  <defs
     id="defs11" />
  <sodipodi:namedview
     pagecolor="#ffffff"
     bordercolor="#666666"
     borderopacity="1"
     objecttolerance="10"
     gridtolerance="10"
     guidetolerance="10"
     inkscape:pageopacity="0"
     inkscape:pageshadow="2"
     inkscape:window-width="3000"
     inkscape:window-height="1875"
     id="namedview9"
     showgrid="false"
     inkscape:zoom="0.295"
     inkscape:cx="-430.50847"
     inkscape:cy="400"
     inkscape:window-x="-13"
     inkscape:window-y="-13"
     inkscape:window-maximized="1"
     inkscape:current-layer="SVGRepo_iconCarrier" />
  <g
     id="SVGRepo_bgCarrier"
     stroke-width="0" />
  <g
     id="SVGRepo_tracerCarrier"
     stroke-linecap="round"
     stroke-linejoin="round" />
  <g
     id="SVGRepo_iconCarrier"
     transform="matrix(1.1561126,0,0,1.2956011,-1.7716569,-3.5977063)"
     style="fill:#ffffff">
    <path
       d="M 7,9 H 17 M 7,13 h 5 m 9,7 -3.3243,-1.6622 c -0.252,-0.126 -0.378,-0.189 -0.5101,-0.2334 C 17.0484,18.065 16.9277,18.0365 16.8052,18.0193 16.6672,18 16.5263,18 16.2446,18 H 6.2 C 5.07989,18 4.51984,18 4.09202,17.782 3.71569,17.5903 3.40973,17.2843 3.21799,16.908 3,16.4802 3,15.9201 3,14.8 V 7.2 C 3,6.07989 3,5.51984 3.21799,5.09202 3.40973,4.71569 3.71569,4.40973 4.09202,4.21799 4.51984,4 5.0799,4 6.2,4 h 11.6 c 1.1201,0 1.6802,0 2.108,0.21799 0.3763,0.19174 0.6823,0.4977 0.874,0.87403 C 21,5.51984 21,6.0799 21,7.2 Z"
       id="path4"
       inkscape:connector-curvature="0"
       style="stroke:#ffffff;stroke-width:2;stroke-linecap:round;stroke-linejoin:round;fill:#ffffff;stroke-opacity:1;fill-opacity:0.02898551" />
  </g>
</svg>
